<svg xmlns="http://www.w3.org/2000/svg" xmlns:xlink="http://www.w3.org/1999/xlink" class="{{ with .class }}{{ . }} {{ end }}icon icon-lichess" width="24" height="24" viewBox="2 3 21 21" version="1.1">
<g id="surface1">
<path style="fill-rule:evenodd;fill:rgb(100%,100%,100%);fill-opacity:1;stroke-width:0;" d="M 22.001953 9.997559 C 32.497559 11.000977 38.503418 18.00293 37.998047 39.001465 L 15 39.001465 C 15 30 24.997559 32.497559 22.998047 18.00293 " transform="matrix(0.533333,0,0,0.533333,0,0)"/>
<path style="fill-rule:evenodd;fill:rgb(100%,100%,100%);fill-opacity:1;stroke-width:0;" d="M 24.001465 18.00293 C 24.382324 20.910645 18.449707 25.371094 16.003418 26.99707 C 13.000488 28.996582 13.183594 31.340332 11.000977 31.003418 C 9.960938 30.058594 12.407227 27.956543 11.000977 28.000488 C 9.997559 28.000488 11.191406 29.230957 9.997559 30 C 9.001465 30 5.998535 31.003418 5.998535 26.000977 C 5.998535 24.001465 11.99707 13.996582 11.99707 13.996582 C 11.99707 13.996582 13.886719 12.099609 13.996582 10.50293 C 13.271484 9.506836 13.498535 8.503418 13.498535 7.5 C 14.501953 6.496582 16.501465 9.997559 16.501465 9.997559 L 18.500977 9.997559 C 18.500977 9.997559 19.277344 8.005371 20.998535 7.001953 C 22.001953 7.001953 22.001953 9.997559 22.001953 9.997559 " transform="matrix(0.533333,0,0,0.533333,0,0)"/>
<path style="fill-rule:evenodd;fill:rgb(0%,0%,0%);fill-opacity:1;stroke-width:0;" d="M 9.499512 25.50293 C 9.499512 25.773926 9.279785 26.000977 9.001465 26.000977 C 8.723145 26.000977 8.503418 25.773926 8.503418 25.50293 C 8.503418 25.224609 8.723145 24.997559 9.001465 24.997559 C 9.279785 24.997559 9.499512 25.224609 9.499512 25.50293 Z M 9.499512 25.50293 " transform="matrix(0.533333,0,0,0.533333,0,0)"/>
<path style="fill-rule:evenodd;fill:rgb(0%,0%,0%);fill-opacity:1;stroke-width:0;" d="M 14.999472 15.496922 C 14.996821 16.32729 14.774506 16.996929 14.499265 17.003609 C 14.226704 17.000284 13.999306 16.328111 14.001958 15.497742 C 13.998266 14.671036 14.22058 14.001397 14.499484 14.00106 C 14.778388 14.000723 14.995781 14.670215 14.999472 15.496922 Z M 14.999472 15.496922 " transform="matrix(0.461867,0.266667,-0.266667,0.461867,5.1696,-2.758933)"/>
</g>
</svg>
